<?xml version="1.0" encoding="UTF-8"?>
<svg width="65px" height="65px" viewBox="0 0 65 65" version="1.1" xmlns="http://www.w3.org/2000/svg" xmlns:xlink="http://www.w3.org/1999/xlink">
    <!-- Generator: Sketch 39.1 (31720) - http://www.bohemiancoding.com/sketch -->
    <title>logo</title>
    <desc>Created with Sketch.</desc>
    <defs></defs>
    <g id="Renter-Screens---Desktop-HD" stroke="none" stroke-width="1" fill="none" fill-rule="evenodd">
        <g id="list-view" transform="translate(-31.000000, -20.000000)">
            <g id="top-bar">
                <g id="logo" transform="translate(31.000000, 20.000000)">
                    <g id="Group" transform="translate(0.041302, 0.020250)" fill="#00A2E0">
                        <rect id="Rectangle-path" x="0.0163544812" y="0.00593000189" width="64.427726" height="64.4581112"></rect>
                    </g>
                    <g id="Group" transform="translate(5.165587, 26.074380)" fill="#FFFFFF">
                        <g transform="translate(41.822207, 0.124842)" id="Oval">
                            <path d="M6.21610189,12.287431 C9.60776297,12.287431 12.3571534,9.53674388 12.3571534,6.14371548 C12.3571534,2.75068707 9.60776297,3.80647894e-15 6.21610189,3.80647894e-15 C2.82444082,3.80647894e-15 0.0750504076,2.75068707 0.0750504076,6.14371548 C0.0750504076,9.53674388 2.82444082,12.287431 6.21610189,12.287431 L6.21610189,12.287431 Z M6.21610189,11.3025857 C3.36845979,11.3025857 1.05989562,8.99293281 1.05989562,6.14371548 C1.05989562,3.29449814 3.36845979,0.984845209 6.21610189,0.984845209 C9.063744,0.984845209 11.3723082,3.29449814 11.3723082,6.14371548 C11.3723082,8.99293281 9.063744,11.3025857 6.21610189,11.3025857 L6.21610189,11.3025857 Z"></path>
                        </g>
                        <g transform="translate(46.873359, 3.829814)" id="Shape">
                            <path d="M2.25428583,4.95102084 L1.76186668,2.02253229 C2.06916434,1.82506998 2.27205508,1.48659187 2.27205508,1.10251462 C2.27205508,0.493957084 1.76297098,3.80647894e-15 1.13602754,3.80647894e-15 C0.509084098,3.80647894e-15 0,0.493957084 0,1.10251462 C0,1.47986248 0.195863356,1.81331866 0.494226191,2.01208667 L0,4.95102084 L2.25428583,4.95102084 L2.25428583,4.95102084 Z"></path>
                        </g>
                        <g transform="translate(0.037167, 0.181638)" id="Shape">
                            <path d="M0.105549834,0.114448262 L2.3581109,0.114448262 C3.649536,0.114448262 4.52039654,0.172961479 4.9712331,0.290550539 C5.61721593,0.455962902 6.14481363,0.795789661 6.55510733,1.31059344 C6.96486046,1.82539723 7.16973702,2.47185575 7.16973702,3.25053163 C7.16973702,4.03483379 6.97026617,4.68129231 6.57024333,5.19103245 C6.17076106,5.70020996 5.61991879,6.04284985 4.91771653,6.21895213 C4.40525483,6.34723111 3.44682172,6.41080797 2.04295777,6.41080797 L1.23588465,6.41080797 L1.23588465,11.8834816 L0.105549834,11.8834816 L0.105549834,0.114448262 L0.105549834,0.114448262 Z M1.23588465,1.25883175 L1.23588465,5.25911032 L3.14950745,5.28274066 C3.92360571,5.28274066 4.48958397,5.20959914 4.84852339,5.06275347 C5.20746281,4.91647043 5.48910051,4.6790418 5.69397707,4.35103021 C5.89885364,4.02301862 6.00156221,3.65618576 6.00156221,3.25053163 C6.00156221,2.85613005 5.89885364,2.49492346 5.69397707,2.16691187 C5.48910051,1.83890028 5.2188148,1.60541004 4.88311996,1.46644115 C4.54742511,1.32803488 3.99766399,1.25883175 3.23437716,1.25883175 L1.23588465,1.25883175 L1.23588465,1.25883175 Z"></path>
                        </g>
                        <g transform="translate(5.800889, 0.181638)" id="Shape">
                            <path d="M5.72032666,0.114448262 L10.9936008,11.8834816 L9.77947738,11.8834816 L8.0037003,8.0109194 L3.12990847,8.0109194 L1.36223995,11.8834816 L0.101627425,11.8834816 L5.4435541,0.114448262 L5.72032666,0.114448262 L5.72032666,0.114448262 Z M5.58194038,2.61082464 L3.63750502,6.87497531 L7.50367175,6.87497531 L5.58194038,2.61082464 L5.58194038,2.61082464 Z"></path>
                        </g>
                        <g transform="translate(18.234032, 0.181638)" id="Shape">
                            <polygon points="0.00594628551 11.8834816 0.00594628551 0.114448262 0.251906277 0.114448262 7.76963288 9.12323314 7.76963288 0.114448262 8.88429113 0.114448262 8.88429113 11.8834816 8.63076314 11.8834816 1.17466167 2.98665953 1.17466167 11.8834816"></polygon>
                        </g>
                        <g transform="translate(28.504520, 0.000144)" id="Shape">
                            <path d="M11.4255173,2.27188817 L10.5492511,3.13608337 C9.91894481,2.4907501 9.22863512,2.00126454 8.47778143,1.66818931 C7.72692774,1.33455144 6.99553462,1.16801383 6.2830615,1.16801383 C5.39652439,1.16801383 4.55215185,1.39475254 3.74994387,1.84822997 C2.94827647,2.3017074 2.32661935,2.91609618 1.88605365,3.69252156 C1.44548795,4.46838431 1.22493482,5.28813197 1.22493482,6.15232717 C1.22493482,7.0379022 1.45305595,7.87902969 1.90929822,8.6768349 C2.36499992,9.47407748 2.99530618,10.1008441 3.80021701,10.556572 C4.60458727,11.0128626 5.48625924,11.2407265 6.44469235,11.2407265 C7.60746146,11.2407265 8.591842,10.8992119 9.39621225,10.2167452 C10.2005825,9.53427858 10.6773665,8.64870355 10.8260236,7.56058276 L7.2209529,7.56058276 L7.2209529,6.42463868 L12.0925824,6.42463868 C12.081771,8.24304942 11.5649848,9.68731315 10.5378991,10.7568672 C9.51027282,11.8264213 8.13559973,12.3609171 6.41387978,12.3609171 C4.32294957,12.3609171 2.66771991,11.6193746 1.44765024,10.1368522 C0.510299411,8.99528183 0.0410834272,7.67535869 0.0410834272,6.17652014 C0.0410834272,5.06195588 0.31028799,4.02447154 0.848156543,3.0640671 C1.38656567,2.1042253 2.12444564,1.35368077 3.06233704,0.811870883 C4.00022844,0.270623628 5.06082954,3.80647894e-15 6.24468093,3.80647894e-15 C7.20311404,3.80647894e-15 8.10478716,0.180040667 8.95024084,0.540122001 C9.79569453,0.900203336 10.6211471,1.47745872 11.4255173,2.27188817 L11.4255173,2.27188817 Z"></path>
                        </g>
                    </g>
                </g>
            </g>
        </g>
    </g>
</svg>